<svg width="640" height="480" viewBox="0 0 640 480" fill="none" xmlns="http://www.w3.org/2000/svg">
  <rect width="640" height="480" rx="36" fill="#111111"/>
  <rect x="40" y="40" width="560" height="400" rx="28" fill="#171717" stroke="#332A1F"/>
  <rect x="88" y="90" width="464" height="64" rx="22" fill="#F6EFE4"/>
  <circle cx="132" cy="122" r="18" fill="#111111"/>
  <path d="M145 135L158 148" stroke="#111111" stroke-width="6" stroke-linecap="round"/>
  <rect x="170" y="114" width="152" height="16" rx="8" fill="#C5A059"/>
  <rect x="338" y="114" width="90" height="16" rx="8" fill="#D9C9AE"/>
  <rect x="444" y="108" width="78" height="28" rx="14" fill="#111111"/>
  <rect x="88" y="186" width="140" height="170" rx="24" fill="#1F1F1F" stroke="#423628"/>
  <rect x="250" y="186" width="140" height="170" rx="24" fill="#F6EFE4"/>
  <rect x="412" y="186" width="140" height="170" rx="24" fill="#1F1F1F" stroke="#423628"/>
  <rect x="116" y="212" width="84" height="82" rx="18" fill="#F6EFE4"/>
  <rect x="278" y="212" width="84" height="82" rx="18" fill="#111111"/>
  <rect x="440" y="212" width="84" height="82" rx="18" fill="#F6EFE4"/>
  <rect x="122" y="314" width="58" height="12" rx="6" fill="#C5A059"/>
  <rect x="284" y="314" width="58" height="12" rx="6" fill="#C5A059"/>
  <rect x="446" y="314" width="58" height="12" rx="6" fill="#C5A059"/>
  <rect x="122" y="336" width="76" height="10" rx="5" fill="#F6EFE4" fill-opacity="0.45"/>
  <rect x="284" y="336" width="76" height="10" rx="5" fill="#111111" fill-opacity="0.45"/>
  <rect x="446" y="336" width="76" height="10" rx="5" fill="#F6EFE4" fill-opacity="0.45"/>
</svg>
