<svg width="640" height="480" viewBox="0 0 640 480" fill="none" xmlns="http://www.w3.org/2000/svg">
  <rect width="640" height="480" rx="36" fill="#FAF4EB"/>
  <rect x="40" y="40" width="560" height="400" rx="28" fill="#FFFDFC" stroke="#E9DECE"/>
  <rect x="90" y="104" width="138" height="236" rx="24" fill="#111111"/>
  <rect x="114" y="126" width="90" height="126" rx="20" fill="#F7F1E8"/>
  <rect x="132" y="148" width="54" height="24" rx="12" fill="#C5A059"/>
  <rect x="138" y="178" width="42" height="58" rx="14" fill="#111111"/>
  <rect x="114" y="272" width="74" height="12" rx="6" fill="#C5A059"/>
  <rect x="114" y="296" width="92" height="10" rx="5" fill="#F7F1E8" fill-opacity="0.7"/>
  <rect x="252" y="104" width="138" height="236" rx="24" fill="#FFF7ED" stroke="#E6D3B7"/>
  <rect x="276" y="126" width="90" height="126" rx="20" fill="#111111"/>
  <rect x="296" y="148" width="50" height="20" rx="10" fill="#C5A059"/>
  <rect x="300" y="174" width="42" height="58" rx="14" fill="#F7F1E8"/>
  <rect x="276" y="272" width="68" height="12" rx="6" fill="#111111"/>
  <rect x="276" y="296" width="88" height="10" rx="5" fill="#C5A059" fill-opacity="0.7"/>
  <rect x="414" y="104" width="138" height="236" rx="24" fill="#111111"/>
  <rect x="438" y="126" width="90" height="126" rx="20" fill="#F7F1E8"/>
  <circle cx="483" cy="184" r="26" fill="#C5A059"/>
  <rect x="438" y="272" width="60" height="12" rx="6" fill="#C5A059"/>
  <rect x="438" y="296" width="76" height="10" rx="5" fill="#F7F1E8" fill-opacity="0.7"/>
  <path d="M92 374H548" stroke="#D9CDBD" stroke-width="10" stroke-linecap="round"/>
</svg>
