<svg width="640" height="480" viewBox="0 0 640 480" fill="none" xmlns="http://www.w3.org/2000/svg">
  <rect width="640" height="480" rx="36" fill="#F7F1E8"/>
  <rect x="40" y="40" width="560" height="400" rx="28" fill="#FFFDFC" stroke="#E8DDCD"/>
  <rect x="110" y="94" width="182" height="292" rx="24" fill="#FFF7ED" stroke="#E7D5B8"/>
  <rect x="142" y="128" width="118" height="18" rx="9" fill="#111111"/>
  <rect x="142" y="160" width="88" height="10" rx="5" fill="#C5A059"/>
  <rect x="142" y="194" width="118" height="8" rx="4" fill="#D8C6A3"/>
  <rect x="142" y="214" width="104" height="8" rx="4" fill="#D8C6A3"/>
  <rect x="142" y="234" width="110" height="8" rx="4" fill="#D8C6A3"/>
  <rect x="322" y="94" width="208" height="292" rx="24" fill="#111111"/>
  <rect x="352" y="126" width="148" height="120" rx="22" fill="#F7F1E8"/>
  <circle cx="426" cy="186" r="34" fill="#C5A059"/>
  <rect x="352" y="272" width="94" height="14" rx="7" fill="#C5A059"/>
  <rect x="352" y="298" width="118" height="10" rx="5" fill="#F7F1E8" fill-opacity="0.75"/>
  <rect x="352" y="320" width="92" height="10" rx="5" fill="#F7F1E8" fill-opacity="0.4"/>
  <path d="M496 88V146L468 130L440 146V88H496Z" fill="#C5A059"/>
</svg>
