<svg width="640" height="480" viewBox="0 0 640 480" fill="none" xmlns="http://www.w3.org/2000/svg">
  <rect width="640" height="480" rx="36" fill="#F7F1E8"/>
  <rect x="40" y="40" width="560" height="400" rx="28" fill="#FFFDFC" stroke="#E8DDCD"/>
  <path d="M206 156C206 119.549 235.549 90 272 90H368C404.451 90 434 119.549 434 156V182H206V156Z" fill="#111111"/>
  <path d="M230 164C230 140.252 249.252 121 273 121H367C390.748 121 410 140.252 410 164V350C410 366.569 396.569 380 380 380H260C243.431 380 230 366.569 230 350V164Z" fill="#1A1A1A"/>
  <rect x="254" y="192" width="132" height="146" rx="24" fill="#F7F1E8"/>
  <rect x="282" y="166" width="76" height="36" rx="18" fill="#C5A059"/>
  <rect x="278" y="216" width="84" height="12" rx="6" fill="#111111"/>
  <rect x="278" y="240" width="62" height="10" rx="5" fill="#C5A059"/>
  <path d="M272 300L292 320L334 276" stroke="#C5A059" stroke-width="10" stroke-linecap="round" stroke-linejoin="round"/>
  <rect x="448" y="152" width="92" height="122" rx="22" fill="#FFF7ED" stroke="#E7D5B8"/>
  <rect x="468" y="180" width="52" height="10" rx="5" fill="#111111"/>
  <rect x="468" y="202" width="44" height="10" rx="5" fill="#C5A059"/>
  <rect x="468" y="224" width="56" height="10" rx="5" fill="#D8C6A3"/>
  <circle cx="474" cy="318" r="10" fill="#111111"/>
  <circle cx="530" cy="318" r="10" fill="#111111"/>
  <path d="M102 154H166L190 278H520" stroke="#C5A059" stroke-width="10" stroke-linecap="round" stroke-linejoin="round"/>
</svg>
