<svg width="640" height="480" viewBox="0 0 640 480" fill="none" xmlns="http://www.w3.org/2000/svg">
  <rect width="640" height="480" rx="36" fill="#111111"/>
  <rect x="40" y="40" width="560" height="400" rx="28" fill="#171717" stroke="#33291F"/>
  <rect x="120" y="96" width="174" height="288" rx="30" fill="#F6EFE4"/>
  <rect x="148" y="128" width="118" height="18" rx="9" fill="#111111"/>
  <rect x="148" y="160" width="82" height="12" rx="6" fill="#C5A059"/>
  <rect x="148" y="190" width="118" height="140" rx="24" fill="#111111"/>
  <path d="M176 244H238" stroke="#C5A059" stroke-width="8" stroke-linecap="round"/>
  <path d="M176 274H224" stroke="#F6EFE4" stroke-opacity="0.75" stroke-width="8" stroke-linecap="round"/>
  <rect x="330" y="112" width="190" height="256" rx="32" fill="#1F1F1F" stroke="#463829"/>
  <rect x="360" y="144" width="130" height="168" rx="22" fill="#FFF7ED" stroke="#E7D5B8"/>
  <rect x="384" y="174" width="82" height="12" rx="6" fill="#111111"/>
  <rect x="384" y="198" width="92" height="10" rx="5" fill="#C5A059"/>
  <rect x="384" y="220" width="72" height="10" rx="5" fill="#D8C6A3"/>
  <path d="M386 262L404 280L446 238" stroke="#111111" stroke-width="10" stroke-linecap="round" stroke-linejoin="round"/>
  <rect x="374" y="328" width="102" height="18" rx="9" fill="#C5A059"/>
  <path d="M466 98L472 110L484 116L472 122L466 134L460 122L448 116L460 110L466 98Z" fill="#C5A059"/>
</svg>
