<svg width="640" height="480" viewBox="0 0 640 480" fill="none" xmlns="http://www.w3.org/2000/svg">
  <rect width="640" height="480" rx="36" fill="#131313"/>
  <rect x="36" y="36" width="568" height="408" rx="28" fill="#1A1A1A" stroke="#352B20"/>
  <circle cx="320" cy="240" r="136" stroke="#C5A059" stroke-opacity="0.2" stroke-width="2"/>
  <circle cx="320" cy="240" r="92" stroke="#C5A059" stroke-opacity="0.35" stroke-width="2"/>
  <circle cx="320" cy="240" r="48" fill="#C5A059" fill-opacity="0.14"/>
  <path d="M320 240L224 170" stroke="#C5A059" stroke-width="3" stroke-linecap="round"/>
  <path d="M320 240L424 174" stroke="#C5A059" stroke-width="3" stroke-linecap="round"/>
  <path d="M320 240L228 318" stroke="#C5A059" stroke-width="3" stroke-linecap="round"/>
  <path d="M320 240L430 308" stroke="#C5A059" stroke-width="3" stroke-linecap="round"/>
  <circle cx="224" cy="170" r="38" fill="#F7F0E5"/>
  <circle cx="424" cy="174" r="38" fill="#F7F0E5"/>
  <circle cx="228" cy="318" r="38" fill="#F7F0E5"/>
  <circle cx="430" cy="308" r="38" fill="#F7F0E5"/>
  <circle cx="320" cy="240" r="30" fill="#F7F0E5"/>
  <path d="M312 240H328" stroke="#111111" stroke-width="6" stroke-linecap="round"/>
  <path d="M320 232V248" stroke="#111111" stroke-width="6" stroke-linecap="round"/>
  <rect x="206" y="156" width="36" height="8" rx="4" fill="#111111"/>
  <rect x="408" y="160" width="30" height="8" rx="4" fill="#111111"/>
  <path d="M216 176L222 182L234 170" stroke="#C5A059" stroke-width="5" stroke-linecap="round" stroke-linejoin="round"/>
  <circle cx="424" cy="188" r="7" fill="#C5A059"/>
  <circle cx="228" cy="332" r="7" fill="#C5A059"/>
  <path d="M418 310L426 318L442 302" stroke="#C5A059" stroke-width="5" stroke-linecap="round" stroke-linejoin="round"/>
  <path d="M500 100L506 112L518 118L506 124L500 136L494 124L482 118L494 112L500 100Z" fill="#C5A059"/>
</svg>
