<svg width="640" height="480" viewBox="0 0 640 480" fill="none" xmlns="http://www.w3.org/2000/svg">
  <rect width="640" height="480" rx="36" fill="#F7F1E8"/>
  <rect x="38" y="38" width="564" height="404" rx="28" fill="#FFFDFC" stroke="#E8DDCD"/>
  <rect x="88" y="120" width="206" height="130" rx="28" fill="#111111"/>
  <rect x="108" y="144" width="110" height="14" rx="7" fill="#C5A059"/>
  <rect x="108" y="172" width="146" height="10" rx="5" fill="#F5E9D4" fill-opacity="0.75"/>
  <rect x="108" y="194" width="122" height="10" rx="5" fill="#F5E9D4" fill-opacity="0.4"/>
  <circle cx="252" cy="206" r="18" fill="#C5A059"/>
  <path d="M226 250L246 238L260 254L278 232" stroke="#C5A059" stroke-width="6" stroke-linecap="round" stroke-linejoin="round"/>
  <rect x="344" y="94" width="204" height="292" rx="30" fill="#1A1A1A"/>
  <rect x="372" y="122" width="148" height="192" rx="24" fill="#F7F1E8"/>
  <circle cx="446" cy="168" r="28" fill="#C5A059"/>
  <path d="M446 145L452 157L464 163L452 169L446 181L440 169L428 163L440 157L446 145Z" fill="#111111"/>
  <rect x="392" y="224" width="108" height="12" rx="6" fill="#111111"/>
  <rect x="392" y="248" width="90" height="10" rx="5" fill="#C5A059" fill-opacity="0.75"/>
  <rect x="392" y="270" width="64" height="10" rx="5" fill="#C5A059" fill-opacity="0.35"/>
  <path d="M138 322H302C317.464 322 330 334.536 330 350V356C330 371.464 317.464 384 302 384H170L138 410V322Z" fill="#FFF7ED" stroke="#E6D4B9"/>
  <rect x="164" y="344" width="116" height="12" rx="6" fill="#111111"/>
  <rect x="164" y="366" width="84" height="10" rx="5" fill="#C5A059" fill-opacity="0.7"/>
</svg>
