<svg width="640" height="480" viewBox="0 0 640 480" fill="none" xmlns="http://www.w3.org/2000/svg">
  <rect width="640" height="480" rx="36" fill="#F7F1E8"/>
  <rect x="40" y="40" width="560" height="400" rx="28" fill="#FFFDFC" stroke="#E8DDCD"/>
  <rect x="112" y="126" width="416" height="228" rx="34" fill="#111111"/>
  <circle cx="484" cy="160" r="70" fill="#C5A059" fill-opacity="0.14"/>
  <rect x="146" y="160" width="142" height="16" rx="8" fill="#C5A059"/>
  <rect x="146" y="188" width="94" height="10" rx="5" fill="#F7F1E8" fill-opacity="0.72"/>
  <path d="M412 194L422 214L444 217L428 232L432 254L412 244L392 254L396 232L380 217L402 214L412 194Z" fill="#C5A059"/>
  <rect x="146" y="278" width="232" height="18" rx="9" fill="#F7F1E8" fill-opacity="0.2"/>
  <rect x="146" y="312" width="168" height="14" rx="7" fill="#F7F1E8" fill-opacity="0.55"/>
  <circle cx="490" cy="288" r="24" fill="#C5A059"/>
  <path d="M478 288H502" stroke="#111111" stroke-width="6" stroke-linecap="round"/>
  <path d="M490 276V300" stroke="#111111" stroke-width="6" stroke-linecap="round"/>
  <rect x="94" y="94" width="84" height="84" rx="24" fill="#FFF7ED" stroke="#E7D5B8"/>
  <path d="M136 116L142 128L154 134L142 140L136 152L130 140L118 134L130 128L136 116Z" fill="#C5A059"/>
</svg>
