<svg width="640" height="480" viewBox="0 0 640 480" fill="none" xmlns="http://www.w3.org/2000/svg">
  <rect width="640" height="480" rx="36" fill="#FAF4EB"/>
  <rect x="40" y="40" width="560" height="400" rx="28" fill="#FFFDFC" stroke="#E9DECE"/>
  <rect x="92" y="98" width="172" height="118" rx="24" fill="#111111"/>
  <path d="M126 178V150" stroke="#C5A059" stroke-width="14" stroke-linecap="round"/>
  <path d="M162 178V128" stroke="#F7F1E8" stroke-opacity="0.85" stroke-width="14" stroke-linecap="round"/>
  <path d="M198 178V110" stroke="#F7F1E8" stroke-opacity="0.45" stroke-width="14" stroke-linecap="round"/>
  <rect x="286" y="98" width="262" height="118" rx="24" fill="#FFF7ED" stroke="#E7D5B8"/>
  <circle cx="364" cy="157" r="38" fill="#C5A059"/>
  <circle cx="364" cy="157" r="22" fill="#FFF7ED"/>
  <path d="M430 138H500" stroke="#111111" stroke-width="10" stroke-linecap="round"/>
  <path d="M430 168H478" stroke="#C5A059" stroke-width="8" stroke-linecap="round"/>
  <rect x="92" y="244" width="456" height="132" rx="28" fill="#111111"/>
  <path d="M126 332L196 274L252 304L318 228L386 266L514 180" stroke="#C5A059" stroke-width="10" stroke-linecap="round" stroke-linejoin="round"/>
  <circle cx="126" cy="332" r="10" fill="#F7F1E8"/>
  <circle cx="196" cy="274" r="10" fill="#F7F1E8"/>
  <circle cx="252" cy="304" r="10" fill="#F7F1E8"/>
  <circle cx="318" cy="228" r="10" fill="#C5A059"/>
  <circle cx="386" cy="266" r="10" fill="#F7F1E8"/>
  <circle cx="514" cy="180" r="10" fill="#C5A059"/>
</svg>
